<svg width="390" height="920" viewBox="0 0 390 920" fill="none" xmlns="http://www.w3.org/2000/svg" xmlns:xlink="http://www.w3.org/1999/xlink">
    <defs>
        <style>
            .font-title { font-family: 'IBM Plex Sans KR', 'system-ui', 'sans-serif'; font-size: 24px; font-weight: 600; fill: #1A1C1E; }
            .font-list-headline { font-family: 'IBM Plex Sans KR', 'system-ui', 'sans-serif'; font-size: 14px; font-weight: 500; fill: #1A1C1E; }
            .font-list-supporting-text { font-family: 'IBM Plex Sans KR', 'system-ui', 'sans-serif'; font-size: 12px; fill: #44474F; }
        </style>
        <clipPath id="profileClip"><circle cx="18" cy="18" r="18"/></clipPath>
    </defs>
    
    <!-- Background -->
    <rect width="390" height="920" fill="#F0F4FA"/>
    
    <!-- Top App Bar -->
    <rect y="0" width="390" height="112" fill="#F0F4FA"/>
    <text x="20" y="32" font-family="sans-serif" font-size="16" font-weight="bold" fill="#1A1C1E">08:31</text>
    <path d="M350 24 Q 352 22 354 24 L 366 32 L 350 32 Z" fill="#1A1C1E" />
    <rect x="330" y="24" width="16" height="8" rx="2" stroke="#1A1C1E" stroke-width="1.5"/>
    <path d="M28 84 L18 84 M22 78 L16 84 L22 90" stroke="#1A1C1E" stroke-width="2.2" fill="none" stroke-linecap="round" stroke-linejoin="round"/>
    <text x="56" y="91" class="font-title">정비 이력</text>
    <g transform="translate(332, 66)" clip-path="url(#profileClip)">
       <image xmlns="http://www.w3.org/2000/svg" xmlns:xlink="http://www.w3.org/1999/xlink" xlink:href="file://C:/Users/colac/Pictures/20231027_202741.jpg" width="52" height="52" x="-4" y="-2"/>
    </g>

    <!-- Content Area: List Card -->
    <g id="maintenance-list-card" transform="translate(16, 128)">
        <rect width="358" height="700" rx="16" fill="#FFFFFF"/>
        
        <!-- List Item 1 -->
        <g class="list-item" transform="translate(24, 24)">
            <text x="0" y="18" class="font-list-headline">진호 고 | 브레이크 패드 교체</text>
            <text x="0" y="40" class="font-list-supporting-text">2025년 06월 12일</text>
            <path d="M312 12 l6 6 l-6 6" stroke="#B0B0B0" stroke-width="2" fill="none" stroke-linecap="round"/>
        </g>
        <line x1="16" y1="80" x2="342" y2="80" stroke="#EEEEEE" stroke-width="1"/>
        
        <!-- List Item 2 -->
        <g class="list-item" transform="translate(24, 96)">
            <text x="0" y="18" class="font-list-headline">자전거 나라 | 체인 오일링, 타이어 교체</text>
            <text x="0" y="40" class="font-list-supporting-text">2025년 04월 05일</text>
            <path d="M312 12 l6 6 l-6 6" stroke="#B0B0B0" stroke-width="2" fill="none" stroke-linecap="round"/>
        </g>
        <line x1="16" y1="152" x2="342" y2="152" stroke="#EEEEEE" stroke-width="1"/>

        <!-- List Item 3 -->
        <g class="list-item" transform="translate(24, 168)">
            <text x="0" y="18" class="font-list-headline">바이크 월드 | 전체 점검</text>
            <text x="0" y="40" class="font-list-supporting-text">2024년 11월 20일</text>
            <path d="M312 12 l6 6 l-6 6" stroke="#B0B0B0" stroke-width="2" fill="none" stroke-linecap="round"/>
        </g>
        <line x1="16" y1="224" x2="342" y2="224" stroke="#EEEEEE" stroke-width="1"/>

        <!-- List Item 4 -->
        <g class="list-item" transform="translate(24, 240)">
            <text x="0" y="18" class="font-list-headline">셀프 정비 | 핸들바 테이프 교체</text>
            <text x="0" y="40" class="font-list-supporting-text">2024년 08월 01일</text>
            <path d="M312 12 l6 6 l-6 6" stroke="#B0B0B0" stroke-width="2" fill="none" stroke-linecap="round"/>
        </g>
        <line x1="16" y1="296" x2="342" y2="296" stroke="#EEEEEE" stroke-width="1"/>

    </g>
    
    <!-- Floating Action Button (FAB) -->
    <rect x="310" y="840" width="64" height="64" rx="20" fill="#D8E2FF"/>
    <path d="M342 862 L342 882 M332 872 L352 872" stroke="#001A41" stroke-width="3"/>

</svg>