<svg width="390" height="1160" viewBox="0 0 390 1160" fill="none" xmlns="http://www.w3.org/2000/svg" xmlns:xlink="http://www.w3.org/1999/xlink">
    <defs>
        <style>
            .font-title { font-family: 'IBM Plex Sans KR', 'system-ui', 'sans-serif'; font-size: 24px; font-weight: 600; fill: #1A1C1E; }
            .font-section-header { font-family: 'IBM Plex Sans KR', 'system-ui', 'sans-serif'; font-size: 20px; font-weight: 600; fill: #1A1C1E; }
            .font-section-subheader { font-family: 'IBM Plex Sans KR', 'system-ui', 'sans-serif'; font-size: 14px; font-weight: 400; fill: #5A5A5A; }
            .font-list-label { font-family: 'IBM Plex Sans KR', 'system-ui', 'sans-serif'; font-size: 12px; font-weight: 500; fill: #44474F; }
            .font-list-value { font-family: 'IBM Plex Sans KR', 'system-ui', 'sans-serif'; font-size: 15px; font-weight: 600; fill: #1A1C1E; }
            .font-history-date { font-family: 'IBM Plex Sans KR', 'system-ui', 'sans-serif'; font-size: 16px; font-weight: 600; fill: #1A1C1E; }
            .font-history-text { font-family: 'IBM Plex Sans KR', 'system-ui', 'sans-serif'; font-size: 14px; fill: #44474F; }
            .font-view-all { font-family: 'IBM Plex Sans KR', 'system-ui', 'sans-serif'; font-size: 14px; font-weight: 600; fill: #005AC1; }
        </style>
        <clipPath id="profileClip"><circle cx="18" cy="18" r="18"/></clipPath>
    </defs>
    
    <!-- Background -->
    <rect width="390" height="1160" fill="#F0F4FA"/>
    
    <!-- Top App Bar -->
    <rect y="0" width="390" height="112" fill="#F0F4FA"/>
    <text x="20" y="32" font-family="sans-serif" font-size="16" font-weight="bold" fill="#1A1C1E">08:31</text>
    <path d="M350 24 Q 352 22 354 24 L 366 32 L 350 32 Z" fill="#1A1C1E" />
    <rect x="330" y="24" width="16" height="8" rx="2" stroke="#1A1C1E" stroke-width="1.5"/>
    <path d="M28 84 L18 84 M22 78 L16 84 L22 90" stroke="#1A1C1E" stroke-width="2.2" fill="none" stroke-linecap="round" stroke-linejoin="round"/>
    <text x="56" y="91" class="font-title">자전거 상세 정보</text>
    <g transform="translate(332, 66)" clip-path="url(#profileClip)">
       <image xmlns="http://www.w3.org/2000/svg" xmlns:xlink="http://www.w3.org/1999/xlink" xlink:href="file://C:/Users/colac/Pictures/20231027_202741.jpg" width="52" height="52" x="-4" y="-2"/>
    </g>

    <!-- Content Area -->
    <g id="content-scroll-area" transform="translate(0, 128)">
        <!-- Section 1: 자전거 정보 -->
        <g id="bike-info-header" transform="translate(16, 0)">
            <circle cx="24" cy="24" r="24" fill="#D8E2FF"/>
            <g transform="translate(12, 12) scale(0.8)"><path d="M6 10C8.20914 10 10 8.20914 10 6C10 3.79086 8.20914 2 6 2C3.79086 2 2 3.79086 2 6C2 8.20914 3.79086 10 6 10ZM24 10C26.2091 10 28 8.20914 28 6C28 3.79086 26.2091 2 24 2C21.7909 2 20 3.79086 20 6C20 8.20914 21.7909 10 24 10Z" stroke="#005AC1" stroke-width="2"/><path d="M10 6H20" stroke="#005AC1" stroke-width="2"/><path d="M7 6L13 18H17L23 6" stroke="#005AC1" stroke-width="2"/><path d="M15 11H20" stroke="#005AC1" stroke-width="2"/></g>
            <text x="64" y="20" class="font-section-header">자전거 정보</text>
            <text x="64" y="42" class="font-section-subheader">상세 사양 및 정보</text>
        </g>
        <g id="bike-info-card" transform="translate(16, 64)">
            <rect width="358" height="310" rx="16" fill="#FFFFFF"/>
            <g transform="translate(24, 24)"><path d="M4 4h16v14H4z M4 6h16 M6 8h4" fill="none" stroke="#5A5A5A" stroke-width="1.5"/><text x="32" y="15" class="font-list-label">프레임 번호</text><text x="310" y="15" class="font-list-value" text-anchor="end">12345</text></g>
            <g transform="translate(24, 64)"><path d="M20 3L3 10l5 12 12-5 2-11-2-3Z M7 12l-2-2" stroke="#5A5A5A" stroke-width="1.5" fill="none"/><text x="32" y="15" class="font-list-label">브랜드</text><text x="310" y="15" class="font-list-value" text-anchor="end">Giant</text></g>
            <g transform="translate(24, 104)"><path d="M17 19H7a4 4 0 0 1-4-4V9a4 4 0 0 1 4-4h10a4 4 0 0 1 4 4v3M8 19v2m8-2v2m-6-13V4" stroke="#5A5A5A" stroke-width="1.5" fill="none"/><circle cx="8" cy="14" r="1.5" fill="#5A5A5A"/><circle cx="16" cy="14" r="1.5" fill="#5A5A5A"/><text x="32" y="15" class="font-list-label">모델</text><text x="310" y="15" class="font-list-value" text-anchor="end">프로펠</text></g>
            <g transform="translate(24, 144)"><path d="M21 10h-6M21 6H8a2 2 0 0 0-2 2v8a2 2 0 0 0 2 2h13a2 2 0 0 0 2-2v-4" stroke="#5A5A5A" stroke-width="1.5" fill="none"/><path d="M3 10V4a2 2 0 0 1 2-2h11" stroke="#5A5A5A" stroke-width="1.5" fill="none"/><text x="32" y="15" class="font-list-label">제조사</text><text x="310" y="15" class="font-list-value" text-anchor="end">Giant</text></g>
            <g transform="translate(24, 184)"><path d="M2 15l4 4 4-4M18 9l4 4-4 4" stroke="#5A5A5A" stroke-width="1.5" fill="none"/><path d="M14 3l-8.2 8.2C5.4 11.6 5 12.3 5 13v6a2 2 0 0 0 2 2h6c.7 0 1.4-.4 1.8-.8L23 10" stroke="#5A5A5A" stroke-width="1.5" fill="none"/><text x="32" y="15" class="font-list-label">자전거 타입</text><text x="310" y="15" class="font-list-value" text-anchor="end">Road Bike</text></g>
            <g transform="translate(24, 224)"><rect x="3" y="4" width="18" height="18" rx="2" stroke="#5A5A5A" stroke-width="1.5"/><path d="M3 9h18M16 2v4M8 2v4" stroke="#5A5A5A" stroke-width="1.5"/><text x="32" y="15" class="font-list-label">제조연도</text><text x="310" y="15" class="font-list-value" text-anchor="end">2022</text></g>
            <g transform="translate(24, 264)"><path d="M12 3a6 6 0 0 0-6 6c0 4.5 6 11 6 11s6-6.5 6-11a6 6 0 0 0-6-6Z" stroke="#5A5A5A" stroke-width="1.5" fill="none"/><circle cx="12" cy="9" r="1" fill="#5A5A5A"/><text x="32" y="15" class="font-list-label">색상</text><text x="310" y="15" class="font-list-value" text-anchor="end">black</text></g>
        </g>
        
        <!-- Section 2: 현재 소유자 -->
        <g id="owner-header" transform="translate(16, 398)">
             <circle cx="24" cy="24" r="24" fill="#D8E2FF"/><g transform="translate(12,12)"><circle cx="12" cy="9" r="4" stroke="#005AC1" stroke-width="2" fill="none"/><path d="M4 20 C 4 15, 20 15, 20 20 Z" stroke="#005AC1" stroke-width="2" fill="none"/></g>
             <text x="64" y="20" class="font-section-header">현재 소유자</text><text x="64" y="42" class="font-section-subheader">자전거 소유 정보</text>
        </g>
        <g id="owner-card" transform="translate(16, 462)">
             <rect width="358" height="118" rx="16" fill="#FFFFFF"/>
             <g transform="translate(24, 24)">
                 <rect width="310" height="70" rx="12" fill="#F8F9FA"/>
                 <circle cx="28" cy="35" r="14" fill="#E8F5E9" opacity="0.8"/>
                 <g transform="translate(16, 23) scale(0.9)"><circle cx="12" cy="9" r="4" stroke="#388E3C" stroke-width="1.5" fill="none"/><path d="M4 20 C 4 15, 20 15, 20 20 Z" stroke="#388E3C" stroke-width="1.5" fill="none"/></g>
                 <text x="56" y="26" class="font-history-date">구마 고</text>
                 <text x="56" y="46" class="font-history-text">colacan01@hotmail.com</text>
                 <text x="56" y="64" class="font-history-text">2025.05.26 부터 소유</text>
             </g>
        </g>
        
        <!-- Section 3: 유지보수 이력 -->
        <g id="maintenance-history-header" transform="translate(16, 604)">
            <circle cx="24" cy="24" r="24" fill="#D8E2FF"/><path d="M22.7 19l-9.1-9.1c.9-2.2.4-5-1.5-6.9-2-2-5-2.4-7.4-1.3L9 6.1l9.1 9.1c.4-.3.8-.5 1.2-.8.5-.2 1.1-.4 1.6-.4.5 0 1 .1 1.4.2.5.1.9.3 1.4.5l-1.3 1.3 9.1 9.1Z" stroke="#005AC1" stroke-width="2" fill="none" transform="translate(12,12) scale(0.9)"/>
            <text x="64" y="20" class="font-section-header">유지보수 이력</text><text x="64" y="42" class="font-section-subheader">최근 정비 및 수리 내역</text>
            <text x="300" y="32" class="font-view-all">전체보기</text>
        </g>
        <g id="maintenance-history-card" transform="translate(16, 668)">
            <rect width="358" height="166" rx="16" fill="#FFFFFF"/>
            <g transform="translate(24, 24)"><rect width="310" height="50" rx="12" fill="#F8F9FA"/><circle cx="28" cy="25" r="14" fill="#FFC107" opacity="0.5"/><path d="M34.7 27l-4.1-4.1c.4-1.1.2-2.5-.7-3.4-1-1-2.6-1.2-3.8-.7L22 14.7l4.1 4.1c.2-.1.4-.2.6-.3.3-.1.5-.2.7-.2.2 0 .5.1.7.1.2 0 .4.1.7.2l-.6.7 4.1 4.1Z" stroke="#D35400" stroke-width="1.5" fill="none" transform="scale(0.8) translate(14, 10)"/><text x="56" y="18" class="font-history-date">2025년 06월 12일</text><text x="56" y="38" class="font-history-text">정비샵: 진호 고 | 정비: 브레이크 패드 교체</text></g>
            <g transform="translate(24, 90)"><rect width="310" height="50" rx="12" fill="#F8F9FA"/><circle cx="28" cy="25" r="14" fill="#FFC107" opacity="0.5"/><path d="M34.7 27l-4.1-4.1c.4-1.1.2-2.5-.7-3.4-1-1-2.6-1.2-3.8-.7L22 14.7l4.1 4.1c.2-.1.4-.2.6-.3.3-.1.5-.2.7-.2.2 0 .5.1.7.1.2 0 .4.1.7.2l-.6.7 4.1 4.1Z" stroke="#D35400" stroke-width="1.5" fill="none" transform="scale(0.8) translate(14, 10)"/><text x="56" y="18" class="font-history-date">2025년 04월 05일</text><text x="56" y="38" class="font-history-text">정비샵: 자전거 나라 | 정비: 체인 오일링</text></g>
        </g>

        <!-- Section 4: 소유권 이력 -->
        <g id="ownership-history-header" transform="translate(16, 858)">
            <circle cx="24" cy="24" r="24" fill="#D8E2FF"/><path d="M17 10L7 10M14 7L17 10L14 13M7 17L17 17M10 14L7 17L10 20" stroke="#005AC1" stroke-width="2" fill="none" stroke-linecap="round" stroke-linejoin="round" transform="translate(12,12)"/>
            <text x="64" y="20" class="font-section-header">소유권 이력</text><text x="64" y="42" class="font-section-subheader">최근 소유권 변경 내역</text>
            <text x="300" y="32" class="font-view-all">전체보기</text>
        </g>
        <g id="ownership-history-card" transform="translate(16, 922)">
            <rect width="358" height="166" rx="16" fill="#FFFFFF"/>
            <g transform="translate(24, 24)"><rect width="310" height="50" rx="12" fill="#F8F9FA"/><circle cx="28" cy="25" r="14" fill="#FFC107" opacity="0.5"/><path d="M32 20L24 20M30 17L32 20L30 23M24 30L32 30M26 27L24 30L26 33" stroke="#D35400" stroke-width="1.5" fill="none" stroke-linecap="round" stroke-linejoin="round"/><text x="56" y="18" class="font-history-date">2025년 06월 10일</text><text x="56" y="38" class="font-history-text">이전: 복숭 고 → 새: 구마 고</text></g>
            <g transform="translate(24, 90)"><rect width="310" height="50" rx="12" fill="#F8F9FA"/><circle cx="28" cy="25" r="14" fill="#FFC107" opacity="0.5"/><path d="M32 20L24 20M30 17L32 20L30 23M24 30L32 30M26 27L24 30L26 33" stroke="#D35400" stroke-width="1.5" fill="none" stroke-linecap="round" stroke-linejoin="round"/><text x="56" y="18" class="font-history-date">2025년 06월 06일</text><text x="56" y="38" class="font-history-text">이전: 복숭 고 → 새: 복숭 고</text></g>
        </g>
        
    </g>
</svg>