<svg width="390" height="920" viewBox="0 0 390 920" fill="none" xmlns="http://www.w3.org/2000/svg" xmlns:xlink="http://www.w3.org/1999/xlink">
    <defs>
        <style>
            .font-title { font-family: 'IBM Plex Sans KR', 'system-ui', 'sans-serif'; font-size: 24px; font-weight: 600; fill: #1A1C1E; }
            .font-list-headline { font-family: 'IBM Plex Sans KR', 'system-ui', 'sans-serif'; font-size: 14px; font-weight: 500; fill: #1A1C1E; }
            .font-list-supporting-text { font-family: 'IBM Plex Sans KR', 'system-ui', 'sans-serif'; font-size: 12px; fill: #44474F; }
	    .font-badge { font-family: 'IBM Plex Sans KR', 'system-ui', 'sans-serif'; font-size: 12px; font-weight: 600; }
            /* Bottom Sheet Fonts */
            .font-sheet-title { font-family: 'IBM Plex Sans KR', 'system-ui', 'sans-serif'; font-size: 20px; font-weight: 600; fill: #FFFFFF; }
            .font-sheet-owner { font-family: 'IBM Plex Sans KR', 'system-ui', 'sans-serif'; font-size: 16px; font-weight: 500; fill: #FFFFFF; }
            .font-sheet-label { font-family: 'IBM Plex Sans KR', 'system-ui', 'sans-serif'; font-size: 14px; fill: #B0B0B0; }
            .font-sheet-value { font-family: 'IBM Plex Sans KR', 'system-ui', 'sans-serif'; font-size: 14px; font-weight: 500; fill: #FFFFFF; }
            .font-sheet-button { font-family: 'IBM Plex Sans KR', 'system-ui', 'sans-serif'; font-size: 16px; font-weight: 600; fill: #FFFFFF; }
        </style>
        <clipPath id="profileClip"><circle cx="18" cy="18" r="18"/></clipPath>
    </defs>
    
    <!-- Background -->
    <rect width="390" height="920" fill="#F0F4FA"/>
    
    <!-- Top App Bar -->
    <rect y="0" width="390" height="112" fill="#F0F4FA"/>
    <text x="20" y="32" font-family="sans-serif" font-size="16" font-weight="bold" fill="#1A1C1E">08:31</text>
    <path d="M350 24 Q 352 22 354 24 L 366 32 L 350 32 Z" fill="#1A1C1E" />
    <rect x="330" y="24" width="16" height="8" rx="2" stroke="#1A1C1E" stroke-width="1.5"/>
    <path d="M28 84 L18 84 M22 78 L16 84 L22 90" stroke="#1A1C1E" stroke-width="2.2" fill="none" stroke-linecap="round" stroke-linejoin="round"/>
    <text x="56" y="91" class="font-title">소유권 이력</text>
    <g transform="translate(332, 66)" clip-path="url(#profileClip)">
       <image xmlns="http://www.w3.org/2000/svg" xmlns:xlink="http://www.w3.org/1999/xlink" xlink:href="file://C:/Users/colac/Pictures/20231027_202741.jpg" width="52" height="52" x="-4" y="-2"/>
    </g>

    <!-- Content Area: List Card -->
    <g id="ownership-list-card" transform="translate(16, 128)">
        <rect width="358" height="700" rx="16" fill="#FFFFFF"/>
        
        <!-- List Item 1 -->
        <g class="list-item" transform="translate(24, 24)">
            <g class="headline-group" transform="translate(0, 5)">
                <rect x="0" y="0" width="40" height="22" rx="6" fill="#EEEEEE"/>
                <text x="20" y="15" class="font-badge" text-anchor="middle" fill="#1A1C1E">이전</text>
                <text x="48" y="16" class="font-list-headline">복숭 고</text>
                <text x="125" y="16" fill="#44474F">→</text>
                <g transform="translate(145, 0)">
                    <rect x="0" y="0" width="32" height="22" rx="6" fill="#005AC1"/>
                    <text x="16" y="15" class="font-badge" text-anchor="middle" fill="#FFFFFF">새</text>
                    <text x="40" y="16" class="font-list-headline">구마 고</text>
                </g>
            </g>
            <text x="0" y="42" class="font-list-supporting-text">2025년 06월 10일</text>
            <path d="M312 18 l6 6 l-6 6" stroke="#B0B0B0" stroke-width="2" fill="none" stroke-linecap="round"/>
        </g>
        <line x1="16" y1="80" x2="342" y2="80" stroke="#EEEEEE" stroke-width="1"/>
        
        <!-- List Item 2 -->
        <g class="list-item" transform="translate(24, 96)">
             <g class="headline-group" transform="translate(0, 5)">
                <rect x="0" y="0" width="40" height="22" rx="6" fill="#EEEEEE"/>
                <text x="20" y="15" class="font-badge" text-anchor="middle" fill="#1A1C1E">이전</text>
                <text x="48" y="16" class="font-list-headline">복숭 고</text>
                <text x="125" y="16" fill="#44474F">→</text>
                <g transform="translate(145, 0)">
                    <rect x="0" y="0" width="32" height="22" rx="6" fill="#005AC1"/>
                    <text x="16" y="15" class="font-badge" text-anchor="middle" fill="#FFFFFF">새</text>
                    <text x="40" y="16" class="font-list-headline">복숭 고</text>
                </g>
            </g>
            <text x="0" y="42" class="font-list-supporting-text">2025년 06월 06일</text>
            <path d="M312 18 l6 6 l-6 6" stroke="#B0B0B0" stroke-width="2" fill="none" stroke-linecap="round"/>
        </g>
        <line x1="16" y1="152" x2="342" y2="152" stroke="#EEEEEE" stroke-width="1"/>

        <!-- List Item 3 -->
        <g class="list-item" transform="translate(24, 168)">
            <g class="headline-group" transform="translate(0, 5)">
                <rect x="0" y="0" width="40" height="22" rx="6" fill="#EEEEEE"/>
                <text x="20" y="15" class="font-badge" text-anchor="middle" fill="#1A1C1E">이전</text>
                <text x="48" y="16" class="font-list-headline">진호 고</text>
                <text x="125" y="16" fill="#44474F">→</text>
                <g transform="translate(145, 0)">
                    <rect x="0" y="0" width="32" height="22" rx="6" fill="#005AC1"/>
                    <text x="16" y="15" class="font-badge" text-anchor="middle" fill="#FFFFFF">새</text>
                    <text x="40" y="16" class="font-list-headline">복숭 고</text>
                </g>
            </g>
            <text x="0" y="42" class="font-list-supporting-text">2024년 12월 25일</text>
            <path d="M312 18 l6 6 l-6 6" stroke="#B0B0B0" stroke-width="2" fill="none" stroke-linecap="round"/>
        </g>
        <line x1="16" y1="224" x2="342" y2="224" stroke="#EEEEEE" stroke-width="1"/>

        <!-- List Item 4 -->
        <g class="list-item" transform="translate(24, 240)">
            <g class="headline-group" transform="translate(0, 5)">
                <rect x="0" y="0" width="40" height="22" rx="6" fill="#EEEEEE"/>
                <text x="20" y="15" class="font-badge" text-anchor="middle" fill="#1A1C1E">이전</text>
                <text x="48" y="16" class="font-list-headline">admin</text>
                <text x="110" y="16" fill="#44474F">→</text>
                <g transform="translate(130, 0)">
                    <rect x="0" y="0" width="32" height="22" rx="6" fill="#005AC1"/>
                    <text x="16" y="15" class="font-badge" text-anchor="middle" fill="#FFFFFF">새</text>
                    <text x="40" y="16" class="font-list-headline">진호 고</text>
                </g>
            </g>
            <text x="0" y="42" class="font-list-supporting-text">2024년 01월 01일</text>
            <path d="M312 18 l6 6 l-6 6" stroke="#B0B0B0" stroke-width="2" fill="none" stroke-linecap="round"/>
        </g>
        <line x1="16" y1="296" x2="342" y2="296" stroke="#EEEEEE" stroke-width="1"/>

    </g>
    
    <!-- Floating Action Button (FAB) with Transfer Icon -->
    <rect x="310" y="840" width="64" height="64" rx="20" fill="#D8E2FF"/>
    <g id="transfer-icon" stroke="#001A41" stroke-width="2.5" stroke-linecap="round" stroke-linejoin="round">
        <path d="M332 866 L352 866"/>
        <path d="M346 862 L352 866 L346 870"/>
        <path d="M352 878 L332 878"/>
        <path d="M338 874 L332 878 L338 882"/>
    </g>
    <!-- === BOTTOM SHEET MENU (Starts Here) === -->
    <!-- Scrim (dark overlay for the background) -->
    <rect width="390" height="920" fill="black" opacity="0.6"/>
    
    <!-- Bottom Sheet Content -->
    <g id="bottom-sheet">
        <!-- Sheet Background Shape -->
        <path d="M0 920 L0 440 Q 0 420, 20 420 L 370 420 Q 390 420, 390 440 L 390 920 Z" fill="#2C2F33"/>
        <!-- Drag Handle -->
        <rect x="175" y="432" width="40" height="5" rx="2.5" fill="#606060"/>
        
        <g id="sheet-content-wrapper" transform="translate(24, 460)">
            <text y="20" class="font-sheet-title">소유권 이전 상세 내역</text>
            
            <!-- New Owner -->
            <g transform="translate(0, 60)">
                <circle cx="20" cy="20" r="20" fill="#005AC1" opacity="0.3"/>
                <g transform="translate(8,8)"><circle cx="12" cy="9" r="4" stroke="#FFFFFF" stroke-width="1.5" fill="none"/><path d="M4 20 C 4 15, 20 15, 20 20 Z" stroke="#FFFFFF" stroke-width="1.5" fill="none"/></g>
                <text x="52" y="16" class="font-sheet-label">새 소유자</text>
                <text x="52" y="36" class="font-sheet-owner">구마 고</text>
            </g>

            <!-- Old Owner -->
            <g transform="translate(0, 110)">
                <circle cx="20" cy="20" r="20" fill="#4A4A4A" opacity="0.5"/>
                <g transform="translate(8,8)"><circle cx="12" cy="9" r="4" stroke="#B0B0B0" stroke-width="1.5" fill="none"/><path d="M4 20 C 4 15, 20 15, 20 20 Z" stroke="#B0B0B0" stroke-width="1.5" fill="none"/></g>
                <text x="52" y="16" class="font-sheet-label">이전 소유자</text>
                <text x="52" y="36" class="font-sheet-owner">복숭 고</text>
            </g>
            
            <line x1="0" y1="170" x2="342" y2="170" stroke="#606060" stroke-width="1"/>

            <!-- Details Section -->
            <g transform="translate(0, 190)">
                <text y="12" class="font-sheet-label">이전 일시</text>
                <text y="12" x="342" class="font-sheet-value" text-anchor="end">2025년 06월 10일 14:32:11</text>
                
                <text y="42" class="font-sheet-label">이전 방식</text>
                <text y="42" x="342" class="font-sheet-value" text-anchor="end">QR 스캔을 통한 이전</text>
                
                <text y="72" class="font-sheet-label">거래 ID</text>
                <text y="72" x="342" class="font-sheet-value" text-anchor="end">TX-a1b2c3d4-e5f6-g7h8</text>
            </g>
            
            <!-- Confirm Button -->
            <g transform="translate(0, 320)">
                <rect width="342" height="52" rx="26" fill="#005AC1"/>
                <text x="171" y="33" class="font-sheet-button" text-anchor="middle">확인</text>
            </g>
        </g>
    </g>
</svg>